<svg width="24" height="24" viewBox="0 0 24 24" fill="none" xmlns="http://www.w3.org/2000/svg">
<path d="M16.4 9.938C16.1613 9.938 15.9324 10.0328 15.7636 10.2016C15.5948 10.3704 15.5 10.5993 15.5 10.838V17.3C15.5 17.5387 15.4052 17.7676 15.2364 17.9364C15.0676 18.1052 14.8387 18.2 14.6 18.2H4.7C4.46131 18.2 4.23239 18.1052 4.0636 17.9364C3.89482 17.7676 3.8 17.5387 3.8 17.3V7.4C3.8 7.16131 3.89482 6.93239 4.0636 6.7636C4.23239 6.59482 4.46131 6.5 4.7 6.5H11.162C11.4007 6.5 11.6296 6.40518 11.7984 6.2364C11.9672 6.06761 12.062 5.83869 12.062 5.6C12.062 5.36131 11.9672 5.13239 11.7984 4.9636C11.6296 4.79482 11.4007 4.7 11.162 4.7H4.7C3.98392 4.7 3.29716 4.98446 2.79081 5.49081C2.28446 5.99716 2 6.68392 2 7.4V17.3C2 18.0161 2.28446 18.7028 2.79081 19.2092C3.29716 19.7155 3.98392 20 4.7 20H14.6C15.3161 20 16.0028 19.7155 16.5092 19.2092C17.0155 18.7028 17.3 18.0161 17.3 17.3V10.838C17.3 10.5993 17.2052 10.3704 17.0364 10.2016C16.8676 10.0328 16.6387 9.938 16.4 9.938ZM19.928 2.558C19.8367 2.33809 19.6619 2.16333 19.442 2.072C19.3338 2.02588 19.2176 2.00142 19.1 2H13.7C13.4613 2 13.2324 2.09482 13.0636 2.2636C12.8948 2.43239 12.8 2.66131 12.8 2.9C12.8 3.13869 12.8948 3.36761 13.0636 3.5364C13.2324 3.70518 13.4613 3.8 13.7 3.8H16.931L7.661 13.061C7.57664 13.1447 7.50969 13.2442 7.464 13.3539C7.41831 13.4636 7.39478 13.5812 7.39478 13.7C7.39478 13.8188 7.41831 13.9364 7.464 14.0461C7.50969 14.1558 7.57664 14.2553 7.661 14.339C7.74467 14.4234 7.84421 14.4903 7.95388 14.536C8.06355 14.5817 8.18119 14.6052 8.3 14.6052C8.41881 14.6052 8.53645 14.5817 8.64612 14.536C8.75579 14.4903 8.85533 14.4234 8.939 14.339L18.2 5.069V8.3C18.2 8.53869 18.2948 8.76761 18.4636 8.9364C18.6324 9.10518 18.8613 9.2 19.1 9.2C19.3387 9.2 19.5676 9.10518 19.7364 8.9364C19.9052 8.76761 20 8.53869 20 8.3V2.9C19.9986 2.78239 19.9741 2.6662 19.928 2.558Z" fill="white"/>
</svg>
